<?xml version="1.0" encoding="utf-8"?>
<!-- Generator: Adobe Illustrator 25.3.1, SVG Export Plug-In . SVG Version: 6.00 Build 0)  -->
<svg version="1.1" id="Layer_1" xmlns="http://www.w3.org/2000/svg" xmlns:xlink="http://www.w3.org/1999/xlink" x="0px" y="0px"
	 viewBox="0 0 637 455.2" style="enable-background:new 0 0 637 455.2;" xml:space="preserve">
<style type="text/css">
	.st0{clip-path:url(#SVGID_2_);fill:url(#SVGID_3_);}
	.st1{filter:url(#Adobe_OpacityMaskFilter);}
	.st2{fill:url(#SVGID_5_);}
	.st3{mask:url(#SVGID_4_);fill-rule:evenodd;clip-rule:evenodd;fill:#FFFFFF;}
	.st4{filter:url(#Adobe_OpacityMaskFilter_1_);}
	.st5{fill:url(#SVGID_7_);}
	.st6{mask:url(#SVGID_6_);fill-rule:evenodd;clip-rule:evenodd;fill:#FFFFFF;}
	.st7{clip-path:url(#SVGID_9_);fill:url(#SVGID_10_);}
	.st8{filter:url(#Adobe_OpacityMaskFilter_2_);}
	.st9{fill:url(#SVGID_12_);}
	.st10{mask:url(#SVGID_11_);fill-rule:evenodd;clip-rule:evenodd;fill:#FFFFFF;}
	.st11{filter:url(#Adobe_OpacityMaskFilter_3_);}
	.st12{fill:url(#SVGID_14_);}
	.st13{mask:url(#SVGID_13_);fill-rule:evenodd;clip-rule:evenodd;fill:#FFFFFF;}
	.st14{filter:url(#Adobe_OpacityMaskFilter_4_);}
	.st15{fill:url(#SVGID_16_);}
	.st16{mask:url(#SVGID_15_);fill-rule:evenodd;clip-rule:evenodd;fill:#FFFFFF;}
	.st17{filter:url(#Adobe_OpacityMaskFilter_5_);}
	.st18{fill:url(#SVGID_18_);}
	.st19{mask:url(#SVGID_17_);fill-rule:evenodd;clip-rule:evenodd;fill:#FFFFFF;}
</style>
<g>
	<defs>
		<path id="SVGID_1_" d="M455.9,287.6c-21.4,46.2-36.6,100.4-36.6,167.7H309.1c24.4-141.6-202.1-141.6-177,0H32.5
			c0,0-22.8-98.5-3.2-176.4c0,0-27,50.9-28.1,85.8C-14.1,208,113,65,280.3,104.4c6.2,30,32.1,83.9,68.2,93c36,9.1,22.6,4.3,24.3-2.6
			l76.8-8.1l26.4,29.8c0,0,1,5.3,2.1,11.9c-17.9-5.9-38.8-10.5-38.8-10.5S429.6,259.3,455.9,287.6"/>
	</defs>
	<clipPath id="SVGID_2_">
		<use xlink:href="#SVGID_1_"  style="overflow:visible;"/>
	</clipPath>
	<linearGradient id="SVGID_3_" gradientUnits="userSpaceOnUse" x1="88.361" y1="116.4909" x2="446.8481" y2="474.978">
		<stop  offset="0" style="stop-color:#F8BE3B"/>
		<stop  offset="1" style="stop-color:#FF7CB7"/>
	</linearGradient>
	<rect x="-14.1" y="65" class="st0" width="492.1" height="390.3"/>
</g>
<defs>
	<filter id="Adobe_OpacityMaskFilter" filterUnits="userSpaceOnUse" x="21.5" y="186.8" width="434.4" height="268.5">
		<feColorMatrix  type="matrix" values="1 0 0 0 0  0 1 0 0 0  0 0 1 0 0  0 0 0 1 0"/>
	</filter>
</defs>
<mask maskUnits="userSpaceOnUse" x="21.5" y="186.8" width="434.4" height="268.5" id="SVGID_4_">
	<g class="st1">
		
			<linearGradient id="SVGID_5_" gradientUnits="userSpaceOnUse" x1="-3780.8406" y1="1493.4946" x2="-3530.9121" y2="1838.6381" gradientTransform="matrix(1 0 0 1 3789.9536 -1489.5675)">
			<stop  offset="0" style="stop-color:#FFFFFF"/>
			<stop  offset="1" style="stop-color:#000000"/>
		</linearGradient>
		<rect x="21.5" y="186.8" class="st2" width="434.4" height="268.5"/>
	</g>
</mask>
<path class="st3" d="M455.9,287.6c-18.5,40-32.4,85.8-35.8,141h-17.4v26.7h-93.6c24.4-141.6-202.1-141.6-177,0H32.5
	c0,0-9.8-42.6-11-93.9C100,200.8,350.8,198,350.8,198c33.1,8.3,20.4,3.5,21.9-3.1l76.8-8.1l2.8,3.1c0.9,9.3,1.6,20.9,2.3,31.7
	c-8.8-2.3-15.3-3.7-15.3-3.7S429.6,259.3,455.9,287.6"/>
<defs>
	<filter id="Adobe_OpacityMaskFilter_1_" filterUnits="userSpaceOnUse" x="256.9" y="217.9" width="199" height="237.4">
		<feColorMatrix  type="matrix" values="1 0 0 0 0  0 1 0 0 0  0 0 1 0 0  0 0 0 1 0"/>
	</filter>
</defs>
<mask maskUnits="userSpaceOnUse" x="256.9" y="217.9" width="199" height="237.4" id="SVGID_6_">
	<g class="st4">
		
			<linearGradient id="SVGID_7_" gradientUnits="userSpaceOnUse" x1="-3796.5366" y1="1581.0725" x2="-3541.9839" y2="1890.5172" gradientTransform="matrix(1 0 0 1 3951.3882 -1489.5675)">
			<stop  offset="0" style="stop-color:#FFFFFF"/>
			<stop  offset="1" style="stop-color:#000000"/>
		</linearGradient>
		<rect x="256.9" y="217.9" class="st5" width="199" height="237.4"/>
	</g>
</mask>
<path class="st6" d="M455.9,287.6c-18.5,40-32.4,85.8-35.8,141h-17.4v26.7h-93.6c9.2-53.3-17.1-86.5-52.2-99.7
	c68.2-95.4,182.3-137.7,182.3-137.7v0C439.2,217.9,429.6,259.3,455.9,287.6"/>
<g>
	<defs>
		<path id="SVGID_8_" d="M566.7,266c0,0-106.5,45.1-127.5-48.2C338.3,238,278,129.3,330.7,49.1C376.1-20,491.5-17.4,525.1,65
			c145.9-1.2,152.8,315-0.9,321.6l1.8-19.7C526,366.8,596,344.9,566.7,266"/>
	</defs>
	<clipPath id="SVGID_9_">
		<use xlink:href="#SVGID_8_"  style="overflow:visible;"/>
	</clipPath>
	<linearGradient id="SVGID_10_" gradientUnits="userSpaceOnUse" x1="328.1732" y1="88.8745" x2="677.8813" y2="309.2577">
		<stop  offset="0" style="stop-color:#F8BE3B"/>
		<stop  offset="1" style="stop-color:#FF7CB7"/>
	</linearGradient>
	<rect x="278" y="-20" class="st7" width="399.9" height="406.5"/>
</g>
<defs>
	<filter id="Adobe_OpacityMaskFilter_2_" filterUnits="userSpaceOnUse" x="323.8" y="0" width="313" height="219.3">
		<feColorMatrix  type="matrix" values="1 0 0 0 0  0 1 0 0 0  0 0 1 0 0  0 0 0 1 0"/>
	</filter>
</defs>
<mask maskUnits="userSpaceOnUse" x="323.8" y="0" width="313" height="219.3" id="SVGID_11_">
	<g class="st8">
		
			<linearGradient id="SVGID_12_" gradientUnits="userSpaceOnUse" x1="-3398.813" y1="1604.9778" x2="-3527.7441" y2="1775.3256" gradientTransform="matrix(1 0 0 1 3997.2759 -1651.3737)">
			<stop  offset="0" style="stop-color:#FFFFFF"/>
			<stop  offset="1" style="stop-color:#000000"/>
		</linearGradient>
		<rect x="323.8" y="0" class="st9" width="313" height="219.3"/>
	</g>
</mask>
<path class="st10" d="M634.4,189.7c1.4,9.7,2.2,19.6,2.4,29.5l0,0C636.6,209.3,635.8,199.5,634.4,189.7 M332.3,46.8
	C378.7-19.9,491.9-16.5,525.1,65c62.6-0.5,99.6,57.4,109.3,124.3c-34.8-8.4-73.9-5.1-108,1.7C480.5,124,414.3,73.4,332.3,46.8z
	 M323.8,60.9c0.1-0.3,0.3-0.5,0.4-0.8C324.1,60.4,324,60.7,323.8,60.9z"/>
<defs>
	<filter id="Adobe_OpacityMaskFilter_3_" filterUnits="userSpaceOnUse" x="311.2" y="46.8" width="255.5" height="230.1">
		<feColorMatrix  type="matrix" values="1 0 0 0 0  0 1 0 0 0  0 0 1 0 0  0 0 0 1 0"/>
	</filter>
</defs>
<mask maskUnits="userSpaceOnUse" x="311.2" y="46.8" width="255.5" height="230.1" id="SVGID_13_">
	<g class="st11">
		
			<linearGradient id="SVGID_14_" gradientUnits="userSpaceOnUse" x1="-3425.281" y1="1574.8904" x2="-3593.2224" y2="1843.3254" gradientTransform="matrix(1 0 0 1 3988.6265 -1611.8177)">
			<stop  offset="0" style="stop-color:#FFFFFF"/>
			<stop  offset="1" style="stop-color:#000000"/>
		</linearGradient>
		<rect x="311.2" y="46.8" class="st12" width="255.5" height="230.1"/>
	</g>
</mask>
<path class="st13" d="M566.7,266c0,0-106.5,45.1-127.5-48.2C338.3,238,278,129.3,330.7,49.1c0.5-0.8,1-1.5,1.5-2.3
	C442.7,82.6,524.5,162,566.7,266"/>
<defs>
	<filter id="Adobe_OpacityMaskFilter_4_" filterUnits="userSpaceOnUse" x="439.2" y="184.2" width="197.7" height="199.3">
		<feColorMatrix  type="matrix" values="1 0 0 0 0  0 1 0 0 0  0 0 1 0 0  0 0 0 1 0"/>
	</filter>
</defs>
<mask maskUnits="userSpaceOnUse" x="439.2" y="184.2" width="197.7" height="199.3" id="SVGID_15_">
	<g class="st14">
		
			<linearGradient id="SVGID_16_" gradientUnits="userSpaceOnUse" x1="-3677.3882" y1="1522.1415" x2="-3512.5813" y2="1878.1647" gradientTransform="matrix(1 0 0 1 4076.3818 -1538.761)">
			<stop  offset="0" style="stop-color:#FFFFFF"/>
			<stop  offset="1" style="stop-color:#000000"/>
		</linearGradient>
		<rect x="439.2" y="184.2" class="st15" width="197.7" height="199.3"/>
	</g>
</mask>
<path class="st16" d="M566.7,266c0,0-106.5,45.1-127.5-48.2c0,0,110.4-49.2,195.2-28.6c11.8,81.4-16.8,176.1-89.2,194.3v-26.8
	C563.5,343.7,585.5,316.6,566.7,266"/>
<defs>
	<filter id="Adobe_OpacityMaskFilter_5_" filterUnits="userSpaceOnUse" x="0" y="97.8" width="350.8" height="266.9">
		<feColorMatrix  type="matrix" values="1 0 0 0 0  0 1 0 0 0  0 0 1 0 0  0 0 0 1 0"/>
	</filter>
</defs>
<mask maskUnits="userSpaceOnUse" x="0" y="97.8" width="350.8" height="266.9" id="SVGID_17_">
	<g class="st17">
		
			<linearGradient id="SVGID_18_" gradientUnits="userSpaceOnUse" x1="-3724.8979" y1="1570.2866" x2="-3599.8169" y2="1782.9115" gradientTransform="matrix(1 0 0 1 3775.2097 -1551.6851)">
			<stop  offset="0" style="stop-color:#FFFFFF"/>
			<stop  offset="1" style="stop-color:#000000"/>
		</linearGradient>
		<rect x="0" y="97.8" class="st18" width="350.8" height="266.9"/>
	</g>
</mask>
<path class="st19" d="M21.5,361.4C100,200.8,350.8,198,350.8,198c-0.7-0.2-1.5-0.4-2.3-0.6c-36-9.1-62-63-68.2-93
	C113,65-14.1,208,1.3,364.6c1.1-35,28.1-85.8,28.1-85.8C22.6,305.5,20.9,334.6,21.5,361.4"/>
</svg>
